<?xml version="1.0" encoding="utf-8"?>
<!-- Generator: Adobe Illustrator 21.1.0, SVG Export Plug-In . SVG Version: 6.00 Build 0)  -->
<svg version="1.1" id="Слой_1" xmlns="http://www.w3.org/2000/svg" xmlns:xlink="http://www.w3.org/1999/xlink" x="0px" y="0px"
	 viewBox="0 0 43.71 41.873" enable-background="new 0 0 43.71 41.873" xml:space="preserve">
<path fill-rule="evenodd" clip-rule="evenodd" fill="#000003" d="M42.002,39.231l0.016-1.486c0.042-2.837-0.007-5.674-0.005-8.512
	c0.001-2.817,0.047-5.634,0.005-8.45c-0.064-4.247,0.066-8.495-0.003-12.742c-0.003-0.207,0.025-0.586-0.002-0.79
	c-0.01-0.018-0.024-0.037-0.034-0.052c-0.008-0.011-0.02-0.027-0.032-0.041L9.248,7.146L9.253,1.74
	c-0.006-0.011-0.009-0.017,0-0.013l0,0C9.095,1.634,8.649,1.686,8.482,1.704c-1.462,0.155-2.637,0.611-3.82,1.484
	C4.49,3.314,4.338,3.454,4.177,3.594C3.74,3.973,3.334,4.416,3.02,4.903C2.432,5.815,2.016,6.719,1.826,7.792
	c-0.285,1.611-0.12,3.621-0.12,5.271v17.012c0,5.635,1.602,10.096,7.834,10.096l21.22,0c1.943,0,3.887,0.027,5.831,0.029
	c1.198,0.001,2.396,0,3.594-0.016c0.293-0.004,0.617,0.025,0.958,0.014C41.666,40.183,42.012,40.292,42.002,39.231L42.002,39.231z
	 M42.027,5.484c0.578,0.01,1.031,0.333,1.327,0.759c0.422,0.608,0.323,0.958,0.336,1.771c0.067,4.198-0.061,8.507,0.002,12.744
	c0.042,2.811-0.004,5.66-0.005,8.476c-0.001,2.837,0.048,5.704,0.005,8.536c-0.011,0.709,0.085,2.478-0.148,2.995
	c-0.187,0.412-0.641,0.843-1.105,0.997c-0.569,0.189-10.91,0.08-11.679,0.084L9.54,41.845c-7.202-0.003-9.508-5.153-9.508-11.77
	V13.063c0-3.991-0.393-6.006,1.581-9.067C2.02,3.366,2.538,2.8,3.078,2.331c0.224-0.195,0.34-0.306,0.59-0.491
	C5.042,0.826,6.48,0.232,8.305,0.039c0.707-0.075,1.272-0.067,1.804,0.25c0.353,0.21,0.82,0.768,0.818,1.328l-0.004,3.857
	L42.027,5.484L42.027,5.484z M4.41,30.009L3,29.104l0.619-0.89c0.494-0.691,1.485-1.45,2.254-1.816
	c1.114-0.529,1.8-0.696,3.006-0.752c0.119-0.006,0.217-0.014,0.331-0.051c0.002-0.001,0.005-0.001,0.007-0.002
	c0.074-0.231,0.055-0.865,0.055-1.049c0-5.705,0-9.813,0-15.518l1.676,0c0,5.704-0.001,9.813-0.001,15.518
	c0,0.92,0.083,2.226-1.226,2.646c-0.971,0.311-1.297-0.151-3.129,0.72c-0.519,0.246-1.294,0.835-1.611,1.277L4.41,30.009
	L4.41,30.009z M27.36,12.738h7.98l-0.047,7.36l-2.152-4.06l-6.156,6.068c-1.721,1.671-2.272,0.843-3.809-0.695l-3.07-3.075L16.42,22
	c-1.544,1.536-2.701,0.023-1.462-1.248l2.011-2.063c0.447-0.454,0.854-0.894,1.307-1.337c0.747-0.73,1.59-1.374,2.755-0.692
	c0.231,0.135,0.148,0.1,0.312,0.29l4.1,4.121c0.228-0.083,0.2-0.104,0.367-0.273c0.731-0.74,5.774-5.837,5.952-6.135L27.36,12.738
	L27.36,12.738z M14.505,31.087c-0.042-0.227,0.003-0.427,0.108-0.588c0.345-0.531,0.965-0.376,1.774-0.381l17.845,0
	c0.444-0.003,0.995-0.027,1.428,0.003c0.719,0.049,0.936,0.825,0.639,1.257c-0.091,0.132-0.243,0.265-0.405,0.323
	c-0.31,0.11-0.979,0.049-1.365,0.049c-1.903,0-15.942,0-17.844,0c-0.469,0-0.956,0.012-1.422-0.001
	C14.9,31.738,14.574,31.457,14.505,31.087z"/>
</svg>
