<?xml version="1.0" encoding="utf-8"?>
<!-- Generator: Adobe Illustrator 21.1.0, SVG Export Plug-In . SVG Version: 6.00 Build 0)  -->
<svg version="1.1" id="Слой_1" xmlns="http://www.w3.org/2000/svg" xmlns:xlink="http://www.w3.org/1999/xlink" x="0px" y="0px"
	 viewBox="0 0 41.093 41.063" enable-background="new 0 0 41.093 41.063" xml:space="preserve">
<g>
	<path fill-rule="evenodd" clip-rule="evenodd" fill="#1A1A18" d="M5.43,33.837c0.683,0,1.255-0.427,1.342-1.092
		c0.038-0.296-0.01-0.645-0.159-0.887c-0.069-0.113-0.167-0.233-0.252-0.335c-0.097-0.118-0.165-0.212-0.255-0.332
		c-0.677-0.896-1.22-1.879-1.724-2.886c-2.005-4.008-2.329-9.325-0.76-13.667l0.46-1.175c0.065-0.162,0.119-0.244,0.186-0.401
		C4.602,12.285,5,11.649,5.417,10.943c0.439-0.744,1.294-1.885,1.93-2.512c0.283-0.279,0.532-0.585,0.836-0.84l2.108-1.747
		c0.819-0.579,1.857-1.214,2.802-1.599c1.051-0.427,1.28-0.521,2.378-0.89l0.887-0.244c3.393-0.823,6.803-0.595,10.083,0.496
		c0.811,0.27,1.541,0.606,2.289,0.98c3.042,1.52,5.547,3.968,7.294,6.87c0.41,0.681,0.788,1.417,1.094,2.175
		c0.103,0.255,0.205,0.497,0.302,0.787c0.052,0.156,0.101,0.259,0.147,0.397c0.048,0.144,0.084,0.285,0.125,0.42
		c0.273,0.891,0.475,1.698,0.616,2.653c0.44,2.996,0.122,5.872-0.835,8.683c-0.183,0.537-0.423,1.022-0.638,1.542
		c-0.515,1.246-1.611,2.93-2.523,3.973c-0.498,0.569-1.011,1.14-1.57,1.657c-0.571,0.528-1.176,0.998-1.81,1.459
		c-0.425,0.309-0.882,0.588-1.325,0.854c-0.686,0.411-1.418,0.765-2.153,1.074c-1.835,0.771-4.258,1.359-6.268,1.359
		c-2.275,0-3.606-0.109-5.694-0.717c-0.335-0.097-0.644-0.195-0.985-0.314c-0.476-0.166-0.952-0.35-1.394-0.575
		c-0.167-0.085-0.295-0.125-0.462-0.209c-0.688-0.344-1.26-0.596-1.91,0.002c-0.599,0.55-0.485,1.627,0.17,2.033
		c0.176,0.109,0.374,0.194,0.554,0.284c0.183,0.091,0.36,0.192,0.563,0.275l2.46,0.935c1.354,0.456,2.795,0.686,4.234,0.837
		l3.238,0.024c0.251-0.037,0.526-0.043,0.775-0.063c1.958-0.16,4.286-0.802,6.038-1.589c1.317-0.593,2.62-1.276,3.766-2.142
		l1.406-1.108c1.077-0.837,2.653-2.638,3.427-3.781c0.403-0.595,0.823-1.177,1.151-1.824c1.007-1.985,1.279-2.585,1.927-4.82
		c0.372-1.283,0.643-3.077,0.643-4.469v-0.007c0-1.532-0.026-2.66-0.275-4.161c-0.148-0.889-0.354-1.775-0.6-2.543
		c-0.848-2.654-2.134-5.227-3.996-7.319l-0.374-0.423c-0.48-0.602-1.722-1.776-2.406-2.288c-0.093-0.07-0.152-0.11-0.237-0.181
		c-0.292-0.241-0.609-0.465-0.912-0.68l-0.939-0.612C30.71,2.628,30.039,2.31,29.345,1.96c-0.713-0.36-1.485-0.646-2.244-0.899
		C23.214-0.234,18.768-0.37,14.844,0.8c-1.569,0.468-2.992,1.065-4.398,1.846c-0.169,0.094-0.312,0.176-0.473,0.282
		c-1.156,0.764-1.918,1.226-2.96,2.152C6.923,5.158,6.898,5.202,6.795,5.281c-0.452,0.35-0.962,0.917-1.377,1.348
		C4.838,7.232,4.328,7.93,3.832,8.603c-0.553,0.748-1.07,1.571-1.489,2.409c-0.096,0.192-0.175,0.352-0.265,0.531
		c-0.173,0.346-0.35,0.736-0.498,1.095c-0.317,0.774-0.557,1.487-0.807,2.336c-0.395,1.341-0.755,3.219-0.75,4.699
		c0.003,0.72-0.073,1.461,0.031,2.233l0.141,1.452c0.217,1.962,0.929,4.275,1.798,6.038c0.089,0.18,0.17,0.339,0.266,0.53
		l0.848,1.498c0.399,0.651,0.827,1.252,1.292,1.851C4.618,33.556,4.955,33.837,5.43,33.837z"/>
	<path fill-rule="evenodd" clip-rule="evenodd" fill="#1A1A18" d="M17.918,26.168c-0.554,0-1.031-0.273-1.335-0.551
		c-0.006-0.006-0.016-0.014-0.022-0.02l-0.043-0.041c-0.006-0.006-0.015-0.015-0.021-0.021l-0.758-0.918
		c-0.892-1.144-1.855-2.228-2.747-3.371c-0.088-0.112-0.126-0.144-0.21-0.251c-0.329-0.416-1.418-1.83-1.728-2.043
		c-1.279-0.878-2.691,0.745-1.774,1.899l1.492,1.819c0.17,0.218,0.323,0.389,0.49,0.599l1.509,1.843
		c0.333,0.408,0.645,0.785,0.976,1.204c0.255,0.322,0.752,0.98,1.024,1.197c0.941,0.752,1.877,1.251,3.191,1.251
		c1.254,0,2.393-0.486,3.238-1.33l1.74-1.906c0.094-0.102,0.108-0.149,0.208-0.253l8.947-9.869c0.38-0.431,0.66-0.697,0.66-1.351
		c0-0.641-0.575-1.215-1.215-1.215c-0.858,0-1.113,0.531-1.623,1.059l-0.608,0.649c-0.085,0.096-0.093,0.133-0.188,0.231
		l-5.759,6.352c-0.082,0.103-0.092,0.128-0.192,0.227c-0.077,0.076-0.14,0.129-0.208,0.211c-0.084,0.101-0.091,0.131-0.19,0.229
		l-1.403,1.531c-0.084,0.101-0.091,0.131-0.19,0.229c-0.079,0.079-0.138,0.128-0.206,0.213l-0.59,0.667
		C19.636,25.189,19.136,26.168,17.918,26.168z"/>
</g>
</svg>
