<?xml version="1.0" encoding="utf-8"?>
<!-- Generator: Adobe Illustrator 21.1.0, SVG Export Plug-In . SVG Version: 6.00 Build 0)  -->
<svg version="1.1" id="Слой_1" xmlns="http://www.w3.org/2000/svg" xmlns:xlink="http://www.w3.org/1999/xlink" x="0px" y="0px"
	 viewBox="0 0 9.319 9.352" enable-background="new 0 0 9.319 9.352" xml:space="preserve">
<path fill="#FFFFFF" d="M4.66,0C2.087,0,0,2.092,0,4.674c0,2.583,2.087,4.678,4.66,4.678s4.659-2.095,4.659-4.678
	C9.319,2.092,7.233,0,4.66,0 M6.75,4.41l-1.096,1.1l-1.095,1.1C4.292,6.878,3.89,6.955,3.543,6.804L2.434,6.326
	c-0.145-0.062-0.18-0.25-0.07-0.364l0.675-0.678c0.087-0.087,0.229-0.087,0.315,0l0.25,0.252c0.174,0.175,0.457,0.175,0.63,0
	l0.724-0.725L5.68,4.085c0.175-0.174,0.175-0.457,0-0.632L5.43,3.201c-0.086-0.087-0.086-0.228,0-0.316l0.675-0.677
	c0.112-0.111,0.3-0.075,0.363,0.069l0.476,1.114C7.093,3.739,7.016,4.143,6.75,4.41z"/>
</svg>
