<?xml version="1.0" encoding="utf-8"?>
<!-- Generator: Adobe Illustrator 21.1.0, SVG Export Plug-In . SVG Version: 6.00 Build 0)  -->
<svg version="1.1" id="Слой_1" xmlns="http://www.w3.org/2000/svg" xmlns:xlink="http://www.w3.org/1999/xlink" x="0px" y="0px"
	 viewBox="0 0 9.318 9.354" enable-background="new 0 0 9.318 9.354" xml:space="preserve">
<path fill="#FFFFFF" d="M4.66,0C2.087,0,0,2.094,0,4.676c0,2.583,2.087,4.678,4.66,4.678c2.572,0,4.658-2.095,4.658-4.678
	C9.318,2.094,7.232,0,4.66,0 M4.66,7.365c0,0-1.767-2.095-1.767-3.605c0-0.979,0.792-1.772,1.767-1.772
	c0.974,0,1.765,0.793,1.765,1.772C6.425,5.27,4.66,7.365,4.66,7.365z"/>
<path fill="#FFFFFF" d="M4.66,2.98c-0.429,0-0.777,0.349-0.777,0.78c0,0.43,0.348,0.778,0.777,0.778
	c0.428,0,0.776-0.348,0.776-0.778C5.436,3.329,5.088,2.98,4.66,2.98"/>
</svg>
