<?xml version="1.0" encoding="utf-8"?>
<!-- Generator: Adobe Illustrator 21.1.0, SVG Export Plug-In . SVG Version: 6.00 Build 0)  -->
<svg version="1.1" id="Слой_1" xmlns="http://www.w3.org/2000/svg" xmlns:xlink="http://www.w3.org/1999/xlink" x="0px" y="0px"
	 viewBox="0 0 12.272 16.029" enable-background="new 0 0 12.272 16.029" xml:space="preserve">
<path fill-rule="evenodd" clip-rule="evenodd" fill="#231F20" d="M8.68,9.123c0.029,0.034,0.055,0.07,0.079,0.108l3.38,5.44
	c0.258,0.415,0.13,0.966-0.286,1.224v0.001c-0.415,0.258-0.967,0.129-1.225-0.286l-3.38-5.44c-0.023-0.038-0.044-0.078-0.062-0.118
	c-2.312,0.945-5.037,0.114-6.399-2.079c-1.521-2.448-0.77-5.665,1.677-7.186c2.448-1.521,5.665-0.77,7.186,1.677
	C11.013,4.658,10.552,7.468,8.68,9.123 M3.278,2.096c1.725-1.072,3.991-0.542,5.063,1.182C9.412,5.003,8.883,7.27,7.159,8.341
	C5.434,9.413,3.168,8.884,2.096,7.159C1.024,5.434,1.554,3.168,3.278,2.096z"/>
</svg>
