<?xml version="1.0" encoding="utf-8"?>
<!-- Generator: Adobe Illustrator 21.1.0, SVG Export Plug-In . SVG Version: 6.00 Build 0)  -->
<svg version="1.1" id="Слой_1" xmlns="http://www.w3.org/2000/svg" xmlns:xlink="http://www.w3.org/1999/xlink" x="0px" y="0px"
	 viewBox="0 0 20.951 20.951" enable-background="new 0 0 20.951 20.951" xml:space="preserve">
<path fill-rule="evenodd" clip-rule="evenodd" fill="#FFFFFF" d="M3.276,0.668c-1.433,0-2.608,1.175-2.608,2.608v14.4
	c0,1.432,1.175,2.607,2.608,2.607h14.399c1.433,0,2.608-1.175,2.608-2.607v-14.4c0-1.433-1.175-2.608-2.608-2.608H3.276 M3.276,0
	h14.399c1.802,0,3.276,1.475,3.276,3.276v14.4c0,1.801-1.474,3.275-3.276,3.275H3.276C1.474,20.951,0,19.477,0,17.676v-14.4
	C0,1.475,1.474,0,3.276,0z"/>
<path fill-rule="evenodd" clip-rule="evenodd" fill="#FFFFFF" d="M3.716,12c0.882,0.816,3.148,1.589,4.992-0.219
	c-0.332,0.052-0.609-0.011-0.819-0.219c-0.199-0.198-0.21-0.402-0.104-0.588c0.087-0.151,0.27-0.258,0.45-0.369
	c-0.326,0.061-0.605,0.029-0.853-0.098c-0.334-0.171-0.659-0.35-0.75-0.721C6.837,9.572,7.063,9.38,7.555,9.453
	C7.093,9.298,6.679,9.096,6.379,8.795C6.087,8.502,6.057,8.311,6.01,8.08c0.255-0.094,0.521-0.143,0.806-0.115
	C6.17,7.635,5.897,7.181,5.745,6.686C5.699,6.536,5.691,6.393,5.71,6.247c2.617,0.988,3.843,1.698,4.519,2.364
	c0.305-0.811,1.014-2.645,2.075-3.274c0.006,0.099-0.035,0.207-0.115,0.322c0.314-0.174,0.559-0.454,0.991-0.449
	c-0.049,0.204-0.193,0.368-0.472,0.472c0.282-0.108,0.568-0.199,0.864-0.253c0.275-0.05,0.271,0.167,0.116,0.276
	c-0.316,0.223-0.651,0.251-0.98,0.358c1.009,0.025,1.834,0.503,2.478,1.545c0.214,0.346,0.358,0.693,0.392,1.072
	c0.431,0.12,0.859,0.145,1.291,0.069c0.119-0.021,0.229-0.043,0.335-0.092c-0.168,0.252-0.363,0.459-0.634,0.553
	c-0.26,0.09-0.52,0.177-0.807,0.185c0.467,0.177,0.982,0.186,1.51,0.15c-0.646,0.622-1.141,0.606-1.637,0.599
	c-0.217,0.919-0.663,1.836-1.602,2.675c-1.233,1.1-2.56,1.625-3.932,1.74c-1.285,0.108-2.528,0.094-3.885-0.542
	C5.211,13.547,4.368,12.899,3.716,12"/>
</svg>
