<?xml version="1.0" encoding="utf-8"?>
<!-- Generator: Adobe Illustrator 21.1.0, SVG Export Plug-In . SVG Version: 6.00 Build 0)  -->
<svg version="1.1" id="Слой_1" xmlns="http://www.w3.org/2000/svg" xmlns:xlink="http://www.w3.org/1999/xlink" x="0px" y="0px"
	 viewBox="0 0 27.988 27.988" enable-background="new 0 0 27.988 27.988" xml:space="preserve">
<path fill-rule="evenodd" clip-rule="evenodd" fill="#1A1A18" d="M4.377,0h19.236c2.407,0,4.376,1.97,4.376,4.376v19.236
	c0,2.407-1.969,4.376-4.376,4.376H4.377C1.97,27.988,0,26.02,0,23.613V4.376C0,1.97,1.97,0,4.377,0L4.377,0z M4.377,0.893
	c-1.914,0-3.484,1.57-3.484,3.484v19.236c0,1.914,1.57,3.483,3.484,3.483h19.236c1.914,0,3.483-1.569,3.483-3.483V4.376
	c0-1.914-1.569-3.484-3.483-3.484H4.377z"/>
<path fill-rule="evenodd" clip-rule="evenodd" fill="#1A1A18" d="M4.965,16.031c1.178,1.09,4.206,2.122,6.668-0.293
	c-0.443,0.069-0.813-0.014-1.093-0.292c-0.266-0.264-0.281-0.537-0.138-0.786c0.116-0.201,0.36-0.344,0.601-0.492
	c-0.436,0.081-0.808,0.039-1.14-0.13c-0.446-0.228-0.879-0.468-1.001-0.963c0.273-0.287,0.576-0.543,1.232-0.446
	c-0.617-0.206-1.17-0.475-1.571-0.877c-0.39-0.393-0.429-0.648-0.492-0.956c0.34-0.126,0.696-0.191,1.077-0.154
	c-0.863-0.441-1.228-1.048-1.432-1.709c-0.062-0.2-0.073-0.39-0.046-0.585c3.496,1.32,5.133,2.268,6.037,3.157
	c0.407-1.082,1.355-3.533,2.772-4.374c0.007,0.134-0.046,0.278-0.154,0.431c0.419-0.233,0.747-0.608,1.324-0.6
	c-0.066,0.273-0.257,0.492-0.631,0.631c0.377-0.145,0.76-0.267,1.155-0.339c0.367-0.066,0.362,0.223,0.154,0.37
	c-0.422,0.298-0.869,0.335-1.309,0.477c1.348,0.034,2.45,0.672,3.311,2.064c0.286,0.463,0.478,0.925,0.524,1.432
	c0.575,0.161,1.147,0.194,1.724,0.092c0.159-0.028,0.306-0.058,0.447-0.123c-0.224,0.337-0.484,0.614-0.847,0.739
	c-0.347,0.12-0.694,0.237-1.078,0.247c0.625,0.236,1.312,0.249,2.018,0.2c-0.863,0.831-1.524,0.81-2.187,0.8
	c-0.29,1.228-0.885,2.452-2.14,3.573c-1.647,1.47-3.42,2.171-5.252,2.326c-1.717,0.144-3.377,0.125-5.19-0.724
	C6.962,18.097,5.836,17.232,4.965,16.031z"/>
</svg>
