<?xml version="1.0" encoding="utf-8"?>
<!-- Generator: Adobe Illustrator 21.1.0, SVG Export Plug-In . SVG Version: 6.00 Build 0)  -->
<svg version="1.1" id="Слой_1" xmlns="http://www.w3.org/2000/svg" xmlns:xlink="http://www.w3.org/1999/xlink" x="0px" y="0px"
	 viewBox="0 0 27.988 27.989" enable-background="new 0 0 27.988 27.989" xml:space="preserve">
<path fill-rule="evenodd" clip-rule="evenodd" fill="#1A1A18" d="M4.377,0h19.235c2.407,0,4.376,1.97,4.376,4.376v19.236
	c0,2.407-1.969,4.376-4.376,4.376H4.377C1.969,27.989,0,26.019,0,23.613V4.376C0,1.97,1.969,0,4.377,0L4.377,0z M4.377,0.893
	c-1.915,0-3.484,1.569-3.484,3.484v19.236c0,1.914,1.569,3.483,3.484,3.483h19.235c1.915,0,3.484-1.569,3.484-3.483V4.376
	c0-1.914-1.569-3.484-3.484-3.484H4.377z"/>
<path fill-rule="evenodd" clip-rule="evenodd" fill="#1A1A18" d="M7.423,23.231h8.023c3.985,0,6.624-1.953,6.624-5.041
	c0-2.612-1.953-3.88-4.17-4.46c1.504-0.607,3.141-1.874,3.141-4.381c0-2.797-2.376-4.592-5.991-4.592H7.423V23.231L7.423,23.231z
	 M8.795,21.964v-7.416h6.255c3.641,0,5.621,1.32,5.621,3.589c0,2.375-2.006,3.827-5.172,3.827H8.795L8.795,21.964z M8.795,13.282
	V6.024h6.228c2.956,0,4.619,1.372,4.619,3.404c0,2.507-1.979,3.853-4.751,3.853H8.795z"/>
</svg>
