<?xml version="1.0" encoding="utf-8"?>
<!-- Generator: Adobe Illustrator 21.1.0, SVG Export Plug-In . SVG Version: 6.00 Build 0)  -->
<svg version="1.1" id="Слой_1" xmlns="http://www.w3.org/2000/svg" xmlns:xlink="http://www.w3.org/1999/xlink" x="0px" y="0px"
	 viewBox="0 0 51.724 51.727" enable-background="new 0 0 51.724 51.727" xml:space="preserve">
<g>
	<path fill-rule="evenodd" clip-rule="evenodd" fill="#1A1A18" d="M1.741,48.375l0.007-0.17l19.933,0v-1.742l-0.761,0.002
		c-1.155,0-2.568,0.073-3.691-0.009V13.803H41.32c0.042,0.678,0.039,2.024-0.002,2.707c-0.181,0.111-0.402,0.165-0.586,0.297
		l-0.749,0.78c-0.288,0.427-0.46,1.162-0.38,1.676l0.22,0.701c0.191,0.391,0.217,0.5,0.542,0.819l0.181,0.157
		c0.393,0.311,0.843,0.523,1.346,0.565c0.55,0.045,1.124-0.045,1.523-0.279c0.054-0.032,0.195-0.136,0.247-0.174
		c0.032-0.023,0.084-0.061,0.122-0.09c0.051-0.041,0.018-0.014,0.07-0.058c0.042-0.035,0.034-0.028,0.069-0.059l0.227-0.24
		c0.174-0.205,0.309-0.439,0.42-0.679c0.037-0.08,0.039-0.117,0.066-0.19c0.108-0.296,0.122-0.42,0.129-0.798l-1.74-0.009
		c-0.016,0.363-0.142,0.67-0.483,0.789c-0.343,0.119-0.647,0.143-0.934-0.135c-0.111-0.108-0.213-0.204-0.253-0.38
		c-0.038-0.168-0.035-0.42,0.017-0.571c0.107-0.308,0.456-0.528,0.764-0.55c0.362-0.025,0.551-0.121,0.746-0.359
		c0.209-0.255,0.142-0.952,0.142-1.34c0-0.814-0.049-1.794,0.009-2.588l2.572-0.001l0.009-1.733
		c-0.958-0.05-2.045-0.008-3.015-0.005c-0.133,0-0.239,0.008-0.35-0.032l-0.821-0.323c-0.428-0.129-2.159-0.91-2.712-1.103
		c-0.736-0.257-1.513-0.658-2.198-0.861l-0.536-0.228c0.271-0.161,5.353-0.002,6.188-0.049l0.002-1.685
		c-1.019-0.057-2.187-0.006-3.22-0.006h-6.492c-0.68,0-0.853,0.043-1.39-0.222l-0.438-0.159c-0.404-0.199-0.796-0.303-1.2-0.496
		l-0.386-0.16c-0.369-0.168-0.786-0.274-1.166-0.449C27.803,6.247,27.7,6.195,27.58,6.158l-0.844-0.343
		c-0.078-0.036-0.18-0.088-0.301-0.123l-3.802-1.504c-0.427-0.138-0.999-0.441-1.44-0.599c-0.127-0.044-0.194-0.043-0.317-0.106
		c-0.008-0.004-0.018-0.011-0.026-0.014c-0.43-0.225-0.96-0.384-1.418-0.577l-1.881-0.747c-0.008-0.004-0.018-0.01-0.026-0.014
		c-0.059-0.027-0.013-0.009-0.09-0.036l-1.767-0.7c-0.101-0.047-0.152-0.079-0.304-0.124c-0.412-0.122-1.026-0.416-1.444-0.593
		c-0.128-0.054-0.189-0.059-0.306-0.117c-0.364-0.18-0.799-0.311-1.16-0.452c-0.231-0.09-0.358-0.169-0.644-0.053
		c-0.132,0.054-0.192,0.063-0.285,0.14l-0.106,0.109c-0.031,0.035-0.071,0.086-0.096,0.117l-0.306,0.374
		c-0.057,0.063-0.007-0.001-0.06,0.068c-0.036,0.046-0.04,0.061-0.065,0.101l-0.716,0.934c-0.005,0.007-0.013,0.017-0.019,0.024
		L9.906,2.23C9.873,2.272,9.857,2.289,9.831,2.323C9.805,2.357,9.777,2.4,9.743,2.449l-1.2,1.553
		c-0.005,0.007-0.014,0.016-0.02,0.023L8.484,4.071C8.449,4.115,8.445,4.126,8.411,4.17L6.238,6.963
		C6.23,6.974,6.203,7.007,6.182,7.033l-0.13,0.168c-0.138,0.167-0.36,0.353-0.411,0.565L0.007,7.77L0.006,9.458l3.426,0.009
		l0.007,2.578l-3.437,0.01l0.002,1.73l5.166,0.009l0.009,32.671H0.935c-0.437,0-0.702,0.232-0.866,0.575
		c-0.084,0.176-0.068,0.232-0.068,0.443v3.182c0,0.249,0.004,0.212,0.071,0.392l0.166,0.305c0.192,0.194,0.376,0.28,0.739,0.28
		h1.984v-1.697H1.741V48.375L1.741,48.375z M26.204,48.205v-1.759c1.963-0.004,3.757-0.002,3.967,0.022
		c0.109,0.013,0.244,0.061,0.347,0.111c0.369,0.18,0.458,0.476,0.458,0.903c0,0.54,0.071,3.299-0.049,3.641
		c-0.058,0.169-0.067,0.13-0.155,0.23c-0.006,0.006-0.013,0.016-0.019,0.022c-0.005,0.006-0.014,0.016-0.019,0.022
		c-0.066,0.067-0.251,0.17-0.314,0.195c-0.124,0.05-0.273,0.048-0.42,0.048H7.484v-1.697h21.794l0.002-1.57l-0.009-0.17l-0.078,0
		H26.204L26.204,48.205z M10.355,42.608c0.158,0.067,0.169,0.111,0.302,0.245c0.006,0.007,0.015,0.015,0.021,0.021l1.762,1.761
		c0.006,0.006,0.015,0.015,0.021,0.022l0.126,0.128c0.006,0.006,0.015,0.015,0.021,0.021c0.006,0.006,0.015,0.015,0.021,0.021
		l0.869,0.871c0.037,0.037,0.024,0.024,0.065,0.063c0.006,0.006,0.015,0.015,0.022,0.021l0.169,0.17
		c0.006,0.006,0.015,0.015,0.021,0.021l0.212,0.213c0.163,0.165,0.149,0.193,0.281,0.227c-0.01,0.007-0.026,0.002-0.032,0.015
		c-0.006,0.014-0.024,0.012-0.033,0.014c-0.242,0.065-3.756,0.022-3.848,0.015L10.355,42.608L10.355,42.608z M6.876,13.803
		l1.731-0.009l0.01,0.17L8.615,46.465H7.088l-0.212-0.009V13.803L6.876,13.803z M15.48,41.332l0.002,3.817
		c-0.022,0.079-0.019,0.055-0.046,0.096c-0.029-0.113-0.129-0.175-0.211-0.255l-0.282-0.269c-0.006-0.006-0.014-0.015-0.021-0.021
		l-0.042-0.043c-0.029-0.031-0.026-0.029-0.061-0.067l-0.191-0.191c-0.045-0.045-0.084-0.085-0.126-0.127
		c-0.041-0.041-0.054-0.055-0.105-0.106l-0.302-0.293c-0.007-0.006-0.015-0.014-0.022-0.021l-0.547-0.556
		c-0.006-0.006-0.015-0.015-0.022-0.021l-0.955-0.954c-0.006-0.007-0.015-0.016-0.021-0.022l-0.705-0.696
		c-0.121-0.132-0.124-0.182-0.235-0.221C11.738,41.271,15.315,41.332,15.48,41.332L15.48,41.332z M10.402,35.691
		c0.04,0.111,0.354,0.378,0.451,0.473l0.679,0.68c0.009,0.009,0.033,0.035,0.042,0.044l0.721,0.72
		c0.006,0.006,0.015,0.015,0.021,0.021l0.149,0.149c0.007,0.006,0.016,0.015,0.022,0.021l0.232,0.235
		c0.035,0.036,0.038,0.038,0.063,0.063c0.036,0.037,0.064,0.065,0.106,0.106l0.806,0.807c0.043,0.044,0.033,0.034,0.064,0.063
		l0.36,0.361c0.13,0.117-0.001,0.058,0.149,0.106l-0.065,0.03c-0.058,0.016-0.035,0.016-0.112,0.024l-3.736-0.01
		c0-0.74-0.039-2.984-0.003-3.686L10.402,35.691L10.402,35.691z M15.48,34.458l0.004,3.87c-0.181-0.109-0.136-0.101-0.275-0.238
		l-0.219-0.205c-0.058-0.059-0.055-0.057-0.105-0.106l-1.04-1.04c-0.045-0.046-0.018-0.021-0.062-0.065l-0.209-0.217
		c-0.006-0.006-0.015-0.015-0.02-0.021l-1.662-1.648c-0.089-0.089-0.194-0.242-0.303-0.281c0.009-0.007,0.023-0.023,0.028-0.014
		c0.005,0.009,0.022-0.011,0.03-0.013C11.852,34.425,15.27,34.458,15.48,34.458L15.48,34.458z M10.355,28.818l0.248,0.214
		c0.006,0.007,0.015,0.016,0.021,0.022l1.824,1.825c0.006,0.007,0.015,0.015,0.022,0.021c0.042,0.041,0.029,0.028,0.065,0.064
		c0.034,0.035,0.031,0.034,0.062,0.065c0.031,0.031,0.03,0.028,0.065,0.062l0.085,0.086c0.006,0.006,0.015,0.015,0.021,0.022
		l1.352,1.362c0.131,0.116-0.001,0.058,0.149,0.106l-0.434,0.053c-0.971-0.01-2.716,0.046-3.479-0.009L10.355,28.818L10.355,28.818z
		 M11.589,27.544l3.891-0.002l0.004,3.912l-1.592-1.552c-0.061-0.062-0.065-0.069-0.126-0.128c-0.006-0.006-0.015-0.014-0.022-0.021
		l-0.827-0.828c-0.06-0.062-0.071-0.071-0.127-0.126l-0.848-0.849c-0.05-0.047-0.079-0.08-0.128-0.128l-0.064-0.064
		c-0.026-0.025-0.039-0.038-0.063-0.064c-0.016-0.018-0.047-0.055-0.056-0.069l-0.029-0.053
		C11.599,27.567,11.594,27.553,11.589,27.544L11.589,27.544z M10.355,21.945c0.139,0.058,0.209,0.141,0.324,0.266
		c0.016,0.017,0.044,0.054,0.058,0.071l2.741,2.732c0.037,0.038,0.031,0.032,0.063,0.063l0.2,0.225
		c0.006,0.006,0.015,0.015,0.021,0.021l0.257,0.253c0.032,0.031,0.037,0.039,0.064,0.063c0.19,0.176,0.128,0.051,0.185,0.201
		l-3.913,0.005L10.355,21.945L10.355,21.945z M15.48,20.668l0.004,3.913c-0.095-0.065-0.05-0.041-0.116-0.101l-0.658-0.658
		c-0.01-0.01-0.042-0.039-0.066-0.062c-0.035-0.034-0.043-0.046-0.063-0.065l-1.825-1.824c-0.021-0.021-0.033-0.032-0.064-0.063
		c-0.021-0.021-0.052-0.055-0.062-0.065l-0.426-0.424c-0.047-0.046-0.084-0.085-0.126-0.129c-0.014-0.016-0.085-0.087-0.105-0.106
		l-0.193-0.19c-0.18-0.184-0.091-0.132-0.194-0.178C11.738,20.607,15.315,20.668,15.48,20.668L15.48,20.668z M10.402,15.028
		l0.811,0.835c0.056,0.057,0.081,0.077,0.129,0.126l0.121,0.134c0.006,0.006,0.015,0.015,0.02,0.022l2.082,2.077
		c0.006,0.007,0.014,0.016,0.02,0.022c0.006,0.007,0.015,0.015,0.021,0.022c0.006,0.006,0.015,0.015,0.021,0.021l0.232,0.234
		c0.12,0.12,0.252,0.315,0.408,0.355l-0.065,0.029c-0.242,0.065-3.756,0.021-3.848,0.015C10.355,18.763,10.293,15.179,10.402,15.028
		L10.402,15.028z M15.48,13.794l0.002,3.816c-0.022,0.079-0.019,0.055-0.046,0.096c-0.039-0.151-0.398-0.424-0.514-0.546
		l-1.227-1.234c-0.006-0.007-0.015-0.016-0.021-0.022l-0.253-0.256c-0.051-0.051-0.076-0.076-0.127-0.127l-0.467-0.467
		c-0.03-0.03-0.05-0.047-0.065-0.062l-0.912-0.914c-0.031-0.033-0.047-0.048-0.063-0.064c-0.119-0.122-0.094-0.136-0.199-0.173
		c0.009-0.006,0.023-0.024,0.028-0.015l0.136-0.034c0.061-0.006,0.188,0,0.256,0.001L15.48,13.794L15.48,13.794z M30.977,9.475
		c0.278-0.015,0.257,0.015,0.455,0.083l1.638,0.658c0.106,0.033,0.12,0.026,0.225,0.074l1.054,0.429
		c0.415,0.132,1.751,0.737,2.025,0.817c0.104,0.03,0.129,0.031,0.223,0.075c0.078,0.036,0.102,0.056,0.206,0.09
		c0.088,0.028,0.148,0.041,0.224,0.075c0.061,0.027,0.111,0.061,0.198,0.092c0.184,0.065,0.24,0.095,0.407,0.17
		c-0.743,0.049-5.826,0.041-6.656,0.007L30.977,9.475L30.977,9.475z M25.841,10.696l0.017-0.235l1.846,1.582l-1.863,0.011V10.696
		L25.841,10.696z M20.666,10.521c0.144,0.033,0.087,0.01,0.221,0.124l0.166,0.132c0.067,0.052,0.066,0.053,0.117,0.092l1.228,1.02
		c0.194,0.156-0.014,0.061,0.173,0.127c-0.187,0.09-1.592,0.052-1.905,0.03L20.666,10.521L20.666,10.521z M15.488,10.696
		l0.018-0.235l1.161,0.967c0.007,0.005,0.017,0.013,0.024,0.018l0.464,0.384c0.139,0.106,0.142,0.086,0.239,0.212l-1.906,0.011
		V10.696L15.488,10.696z M10.355,10.521c0.218,0.088,0.518,0.397,0.723,0.554c0.007,0.005,0.017,0.013,0.024,0.018
		c0.007,0.005,0.017,0.013,0.024,0.019l0.806,0.68c0.196,0.153,0.143,0.057,0.286,0.251l-1.863,0.011L10.355,10.521L10.355,10.521z
		 M5.178,10.696l0.018-0.235l0.394,0.334c0.007,0.005,0.016,0.014,0.022,0.019l1.18,0.986c0.142,0.118,0.166,0.173,0.292,0.219
		c-0.445,0.087-1.405,0.037-1.906,0.035V10.696L5.178,10.696z M27.379,9.476l1.893-0.01l0.004,1.59
		c-0.215-0.067-0.035-0.008-0.14-0.085l-0.393-0.333c-0.033-0.026-0.043-0.031-0.074-0.054l-0.511-0.419
		c-0.007-0.006-0.016-0.014-0.023-0.02l-0.362-0.316c-0.007-0.006-0.017-0.013-0.024-0.019L27.379,9.476L27.379,9.476z
		 M22.203,9.475l1.892-0.002l0.005,1.568c-0.131-0.031-0.135-0.066-0.3-0.214l-0.184-0.155c-0.085-0.069-0.13-0.109-0.228-0.193
		l-0.721-0.597c-0.009-0.008-0.034-0.032-0.043-0.04L22.203,9.475L22.203,9.475z M17.069,9.476l1.85-0.01l-0.123,1.488l-1.277-1.058
		C17.377,9.785,17.168,9.623,17.069,9.476L17.069,9.476z M13.666,10.929c-0.115-0.023-0.488-0.334-0.625-0.454L12.212,9.77
		c-0.065-0.052-0.127-0.109-0.174-0.182c-0.155-0.026-0.072,0.031-0.153-0.079c0.145-0.109,1.74-0.051,1.907-0.041
		c0.013,0.268,0.008,0.537,0.008,0.805c0,0.127-0.001,0.255,0,0.382c0.002,0.167,0.027,0.273-0.052,0.397
		C13.607,10.985,13.707,11.082,13.666,10.929L13.666,10.929z M6.716,9.476l1.892-0.01l0.004,1.59
		c-0.202-0.08-0.04-0.012-0.139-0.089L7.888,10.49c-0.007-0.006-0.015-0.014-0.022-0.02c-0.006-0.006-0.015-0.015-0.022-0.02
		c-0.049-0.043-0.023-0.022-0.068-0.059L6.716,9.476L6.716,9.476z M12.915,2.146l2.603,1.048c0.15,0.063,0.343,0.145,0.458,0.182
		l1.774,0.693c0.05,0.017,0.086,0.035,0.118,0.051l6.628,2.659c0.166,0.074,0.172,0.031,0.434,0.164
		c0.349,0.177,0.774,0.314,1.201,0.496l0.523,0.2c0.096,0.038,0.125,0.037,0.205,0.088c-0.098,0.059-0.058,0.042-0.211,0.042
		L12.907,7.762c-0.05-1.537-0.007-3.809-0.01-5.425L12.915,2.146L12.915,2.146z M7.819,7.759c0.024-0.114,0.135-0.203,0.204-0.285
		L9.137,6.04C9.194,5.97,9.15,6.028,9.192,5.969l0.981-1.262c0.006-0.007,0.014-0.017,0.019-0.024l0.113-0.149
		c0.006-0.007,0.014-0.016,0.019-0.023l0.255-0.333c0.011-0.016,0.035-0.05,0.054-0.074l0.259-0.336
		c0.201-0.289,0.191-0.181,0.31-0.347l-0.005,4.349L7.819,7.759z"/>
	<path fill-rule="evenodd" clip-rule="evenodd" fill="#FFFFFF" d="M36.793,35.336c0.474-0.107,2.338-0.029,2.965-0.029
		c0.679,0,0.965-0.098,1.333,0.279c0.109,0.112,0.195,0.303,0.225,0.45l0.012,3.726c0,0.721,0.146,1.776-0.26,2.16l-0.19,0.151
		c-0.373,0.246-2.489,0.108-3.157,0.108c-0.521,0-1.472,0.09-1.562-0.725l-0.009-5.259C36.159,35.766,36.375,35.431,36.793,35.336
		L36.793,35.336z M43.667,35.336c0.533-0.111,2.294-0.029,2.965-0.029c0.245,0,0.525-0.013,0.765,0.003
		c0.914,0.061,0.805,0.939,0.805,1.439l-0.001,4.542c-0.008,0.403-0.211,0.75-0.618,0.862c-0.326,0.09-2.472,0.027-2.988,0.027
		c-0.569,0-0.931,0.09-1.289-0.238l-0.268-0.492l-0.013-3.726c0-0.497-0.021-1.04-0.001-1.531c0.01-0.248,0.099-0.468,0.26-0.629
		c0.007-0.006,0.015-0.015,0.022-0.021c0.007-0.007,0.015-0.015,0.022-0.021c0.037-0.035,0.037-0.038,0.089-0.079
		C43.536,35.35,43.486,35.374,43.667,35.336L43.667,35.336z M36.816,26.711c0.25-0.049,2.528-0.018,2.985-0.018
		c0.609,0,0.914-0.095,1.29,0.279c0.056,0.055,0.191,0.207,0.231,0.486l0.007,3.732c0,0.637,0.133,1.691-0.216,2.075l-0.109,0.105
		c-0.122,0.112-0.163,0.144-0.325,0.175c-0.286,0.054-2.514,0.022-2.999,0.022c-1.422,0-1.527-0.138-1.527-1.485
		c0-1.005,0-2.009,0-3.013c0-0.741-0.131-1.667,0.206-2.086c0.08-0.1,0.103-0.091,0.219-0.164c0.008-0.005,0.017-0.012,0.025-0.017
		L36.816,26.711L36.816,26.711z M43.025,27.627c0-0.27,0.092-0.523,0.282-0.696c0.187-0.172,0.365-0.237,0.695-0.237h3.267
		c0.32,0,0.552,0.093,0.708,0.267c0.171,0.191,0.226,0.377,0.226,0.708v4.922c0,0.352-0.12,0.738-0.459,0.898
		c-0.308,0.146-3.057,0.078-3.7,0.078c-0.389,0-0.515-0.022-0.738-0.238c-0.009-0.009-0.035-0.034-0.044-0.043
		c-0.006-0.007-0.015-0.015-0.021-0.022c-0.13-0.143-0.217-0.419-0.217-0.631V27.627L43.025,27.627z M37.001,49.938
		c0-0.503-0.07-5.177,0.054-5.457c0.103-0.231,0.106-0.245,0.267-0.369c0.107-0.082,0.123-0.115,0.268-0.156
		c0.309-0.087,7.77-0.037,8.745-0.037c0.42,0,0.447,0.004,0.696,0.194c0.145,0.11,0.122,0.071,0.212,0.255l0.056,0.111
		c0.123,0.276,0.054,4.963,0.054,5.461l2.588,0.005l-0.002-7.808H48.93v-6.76h1.008l-0.002-10.424l-15.481,0.009v1.923h0.731v6.76
		h-0.731l0,16.293L37.001,49.938z"/>
	<path fill-rule="evenodd" clip-rule="evenodd" fill="#1A1A18" d="M38.782,45.617l6.831,0.007l0.001,4.316l-0.17,0.005l-6.534,0.001
		l-0.17-0.007L38.782,45.617L38.782,45.617z M37.001,49.938l-2.546-0.001l0-16.293h-1.741l0,6.583
		c0,0.656-0.037,10.284,0.007,10.689c0.041,0.362,0.384,0.696,0.741,0.714c3.815,0.043,7.654,0.003,11.472,0.003
		c1.907,0,3.822,0.016,5.729,0c1.17-0.009,0.966-1.001,0.966-1.858c0-2.545,0.003-5.091,0.006-7.638H49.94l0.002,7.808l-2.588-0.005
		c0-0.498,0.069-5.185-0.054-5.461l-0.056-0.111c-0.09-0.183-0.067-0.144-0.212-0.255c-0.249-0.19-0.276-0.194-0.696-0.194
		c-0.975,0-8.436-0.051-8.745,0.037c-0.146,0.041-0.161,0.074-0.268,0.156c-0.16,0.124-0.164,0.138-0.267,0.369
		C36.931,44.762,37.001,49.435,37.001,49.938L37.001,49.938z M34.455,26.884h-1.741v-2.653c0.003-0.958,0.606-0.975,1.316-0.975
		h15.275c0.978,0,2.175-0.237,2.322,0.706c0.017,3.802,0.019,7.608,0.017,11.414h-1.706l-0.002-10.424l-15.481,0.009V26.884z"/>
	<polygon fill-rule="evenodd" clip-rule="evenodd" fill="#FFFFFF" points="38.74,49.938 38.91,49.946 45.444,49.945 45.614,49.939 
		45.613,45.623 38.782,45.617 	"/>
	<path fill-rule="evenodd" clip-rule="evenodd" fill="#1A1A18" d="M37.898,37.005l1.684-0.001l0.006,0.212l0.001,3.055l-0.007,0.17
		l-1.686-0.009l-0.005-0.161l-0.002-3.055L37.898,37.005L37.898,37.005z M36.793,35.336c-0.418,0.095-0.634,0.43-0.642,0.859
		l0.009,5.259c0.09,0.816,1.041,0.725,1.562,0.725c0.667,0,2.784,0.138,3.157-0.108l0.19-0.151c0.406-0.384,0.26-1.438,0.26-2.16
		l-0.012-3.726c-0.03-0.147-0.116-0.338-0.225-0.45c-0.368-0.378-0.654-0.279-1.333-0.279
		C39.131,35.306,37.268,35.229,36.793,35.336z"/>
	<path fill-rule="evenodd" clip-rule="evenodd" fill="#1A1A18" d="M44.772,37.005l1.684-0.001l0.007,0.212l0.001,3.055l-0.007,0.17
		l-1.686-0.009l-0.005-0.161l-0.001-3.055L44.772,37.005L44.772,37.005z M43.667,35.336c-0.181,0.038-0.131,0.014-0.25,0.107
		c-0.052,0.041-0.052,0.044-0.089,0.079c-0.007,0.006-0.015,0.015-0.022,0.021c-0.007,0.006-0.015,0.015-0.022,0.021
		c-0.162,0.162-0.25,0.382-0.26,0.629c-0.02,0.491,0.001,1.034,0.001,1.531l0.013,3.726l0.268,0.492
		c0.358,0.327,0.72,0.238,1.289,0.238c0.515,0,2.662,0.063,2.988-0.027c0.407-0.112,0.61-0.458,0.618-0.862l0.001-4.542
		c0-0.5,0.109-1.378-0.805-1.439c-0.24-0.016-0.521-0.003-0.765-0.003C45.961,35.306,44.2,35.225,43.667,35.336z"/>
	<path fill-rule="evenodd" clip-rule="evenodd" fill="#1A1A18" d="M37.898,28.434l1.69-0.001l-0.006,3.437l-1.69-0.009
		L37.898,28.434L37.898,28.434z M36.816,26.711l-0.214,0.09c-0.008,0.005-0.017,0.012-0.025,0.017
		c-0.117,0.073-0.139,0.064-0.219,0.164c-0.336,0.419-0.206,1.345-0.206,2.086c0,1.004,0,2.008,0,3.013
		c0,1.347,0.105,1.485,1.527,1.485c0.485,0,2.713,0.032,2.999-0.022c0.162-0.03,0.203-0.063,0.325-0.175l0.109-0.105
		c0.35-0.384,0.216-1.438,0.216-2.075l-0.007-3.732c-0.04-0.279-0.175-0.431-0.231-0.486c-0.376-0.374-0.68-0.279-1.29-0.279
		C39.344,26.693,37.065,26.663,36.816,26.711z"/>
	<path fill-rule="evenodd" clip-rule="evenodd" fill="#1A1A18" d="M44.772,28.434l1.691-0.001l-0.006,3.437l-1.69-0.009
		L44.772,28.434L44.772,28.434z M43.025,27.627v5.006c0,0.212,0.087,0.489,0.217,0.631c0.006,0.007,0.015,0.015,0.021,0.022
		c0.009,0.009,0.035,0.034,0.044,0.043c0.223,0.216,0.348,0.238,0.738,0.238c0.643,0,3.392,0.068,3.7-0.078
		c0.339-0.16,0.459-0.547,0.459-0.898v-4.922c0-0.331-0.055-0.518-0.226-0.708c-0.156-0.175-0.388-0.267-0.708-0.267h-3.267
		c-0.329,0-0.508,0.065-0.695,0.237C43.117,27.104,43.025,27.356,43.025,27.627z"/>
	<polygon fill-rule="evenodd" clip-rule="evenodd" fill="#FFFFFF" points="37.89,37.215 37.892,40.271 37.897,40.432 39.582,40.441 
		39.59,40.271 39.589,37.215 39.582,37.003 37.898,37.005 	"/>
	<polygon fill-rule="evenodd" clip-rule="evenodd" fill="#FFFFFF" points="44.764,37.215 44.765,40.271 44.77,40.432 46.456,40.441 
		46.463,40.271 46.463,37.215 46.456,37.003 44.772,37.005 	"/>
	<polygon fill-rule="evenodd" clip-rule="evenodd" fill="#FFFFFF" points="37.893,31.86 39.582,31.87 39.589,28.433 37.898,28.434 	
		"/>
	<polygon fill-rule="evenodd" clip-rule="evenodd" fill="#FFFFFF" points="44.766,31.86 46.456,31.87 46.463,28.433 44.772,28.434 	
		"/>
	<path fill-rule="evenodd" clip-rule="evenodd" fill="#DCDDDD" d="M33.463,51.63v0.096h18.261v-9.59h-0.087
		c-0.003,2.547-0.006,5.093-0.006,7.638c0,0.857,0.204,1.849-0.966,1.858c-1.907,0.016-3.822,0-5.729,0
		C41.117,51.633,37.277,51.674,33.463,51.63L33.463,51.63z M51.724,35.377V23.963h-0.097c0.017,3.802,0.019,7.608,0.017,11.414
		H51.724z"/>
</g>
</svg>
