<?xml version="1.0" encoding="utf-8"?>
<!-- Generator: Adobe Illustrator 21.1.0, SVG Export Plug-In . SVG Version: 6.00 Build 0)  -->
<svg version="1.1" id="Слой_1" xmlns="http://www.w3.org/2000/svg" xmlns:xlink="http://www.w3.org/1999/xlink" x="0px" y="0px"
	 viewBox="0 0 27.988 27.988" enable-background="new 0 0 27.988 27.988" xml:space="preserve">
<path fill-rule="evenodd" clip-rule="evenodd" fill="#1A1A18" d="M4.376,0h19.236c2.407,0,4.376,1.969,4.376,4.376v19.236
	c0,2.407-1.969,4.376-4.376,4.376H4.376C1.969,27.988,0,26.019,0,23.612V4.376C0,1.969,1.969,0,4.376,0L4.376,0z M4.376,0.892
	c-1.914,0-3.484,1.57-3.484,3.484v19.236c0,1.914,1.569,3.483,3.484,3.483h19.236c1.914,0,3.484-1.57,3.484-3.483V4.376
	c0-1.914-1.57-3.484-3.484-3.484H4.376z"/>
<path fill-rule="evenodd" clip-rule="evenodd" fill="#1A1A18" d="M11.962,23.666h1.293V11.394h4.698v-1.187h-4.698V8.913
	c0-2.296,0.871-3.404,2.719-3.404c0.686,0,1.24,0.106,2.006,0.343V4.638c-0.607-0.211-1.188-0.317-2.006-0.317
	c-1.188,0-2.138,0.369-2.824,1.055c-0.765,0.766-1.187,1.979-1.187,3.51v1.32h-1.953v1.187h1.953V23.666z"/>
</svg>
