<?xml version="1.0" encoding="utf-8"?>
<!-- Generator: Adobe Illustrator 21.1.0, SVG Export Plug-In . SVG Version: 6.00 Build 0)  -->
<svg version="1.1" id="Слой_1" xmlns="http://www.w3.org/2000/svg" xmlns:xlink="http://www.w3.org/1999/xlink" x="0px" y="0px"
	 viewBox="0 0 20.951 20.951" enable-background="new 0 0 20.951 20.951" xml:space="preserve">
<path fill-rule="evenodd" clip-rule="evenodd" fill="#FFFFFF" d="M3.276,0.668c-1.433,0-2.608,1.175-2.608,2.608v14.4
	c0,1.432,1.175,2.607,2.608,2.607h14.399c1.433,0,2.608-1.175,2.608-2.607v-14.4c0-1.433-1.175-2.608-2.608-2.608H3.276 M3.276,0
	h14.399c1.802,0,3.276,1.475,3.276,3.276v14.4c0,1.801-1.474,3.275-3.276,3.275H3.276C1.474,20.951,0,19.477,0,17.676v-14.4
	C0,1.475,1.474,0,3.276,0z"/>
<path fill="#FFFFFF" d="M8.954,17.716h0.968V8.529h3.516V7.641H9.922V6.673c0-1.719,0.652-2.549,2.035-2.549
	c0.513,0,0.928,0.079,1.501,0.257V3.472c-0.454-0.158-0.889-0.237-1.501-0.237c-0.889,0-1.6,0.277-2.114,0.79
	C9.27,4.598,8.954,5.507,8.954,6.653v0.988H7.492v0.888h1.462V17.716"/>
</svg>
