<?xml version="1.0" encoding="utf-8"?>
<!-- Generator: Adobe Illustrator 21.1.0, SVG Export Plug-In . SVG Version: 6.00 Build 0)  -->
<svg version="1.1" id="Слой_1" xmlns="http://www.w3.org/2000/svg" xmlns:xlink="http://www.w3.org/1999/xlink" x="0px" y="0px"
	 viewBox="0 0 54.391 50.125" enable-background="new 0 0 54.391 50.125" xml:space="preserve">
<g>
	<g>
		<g>
			<g>
				<path fill-rule="evenodd" clip-rule="evenodd" fill="#1A1A18" d="M45.32,36.742c-1.435,0-2.532,0.608-2.532,2.279v2.397
					c0,1.671,1.097,2.279,2.532,2.279c1.418,0,2.532-0.608,2.532-2.279v-2.397C47.852,37.35,46.738,36.742,45.32,36.742
					L45.32,36.742z M46.164,41.418c0,0.557-0.321,0.811-0.844,0.811s-0.827-0.253-0.827-0.811v-2.397c0-0.557,0.304-0.81,0.827-0.81
					c0.524,0,0.844,0.253,0.844,0.81V41.418z"/>
			</g>
		</g>
		<g>
			<g>
				<path fill-rule="evenodd" clip-rule="evenodd" fill="#1A1A18" d="M37.571,31.306c-1.435,0-2.532,0.608-2.532,2.279v2.397
					c0,1.671,1.097,2.279,2.532,2.279c1.418,0,2.533-0.608,2.533-2.279v-2.397C40.104,31.914,38.989,31.306,37.571,31.306
					L37.571,31.306z M38.415,35.983c0,0.557-0.321,0.81-0.844,0.81s-0.827-0.253-0.827-0.81v-2.397c0-0.557,0.304-0.811,0.827-0.811
					c0.524,0,0.844,0.253,0.844,0.811V35.983z"/>
			</g>
		</g>
		<g>
			<g>
				<path fill-rule="evenodd" clip-rule="evenodd" fill="#1A1A18" d="M44.341,30.305c-0.304,0-0.574,0.135-0.709,0.422
					l-5.926,12.172c-0.051,0.101-0.084,0.219-0.084,0.321c0,0.422,0.372,0.895,0.946,0.895c0.321,0,0.641-0.169,0.76-0.422
					L45.27,31.52c0.05-0.101,0.068-0.219,0.068-0.321C45.337,30.659,44.813,30.305,44.341,30.305z"/>
			</g>
		</g>
		<g>
			<g>
				<path fill-rule="evenodd" clip-rule="evenodd" fill="#1A1A18" d="M46.176,25.128v-5.309l2.365,1.573
					c0.89,0.593,2.041,0.592,2.932,0c0.74-0.492,1.181-1.315,1.181-2.204c0-0.888-0.441-1.712-1.181-2.204l-6.193-4.12
					c-0.356-0.237-0.836-0.14-1.072,0.216c-0.237,0.355-0.14,0.835,0.215,1.072l6.193,4.12c0.312,0.208,0.491,0.541,0.491,0.916
					c0,0.375-0.179,0.709-0.491,0.916c-0.37,0.246-0.849,0.246-1.219,0L27.078,5.257c-0.143-0.095-0.298-0.16-0.458-0.195
					c-0.353-0.078-0.73-0.013-1.043,0.195L3.256,20.104c-0.37,0.246-0.848,0.246-1.219,0c-0.312-0.208-0.491-0.541-0.491-0.916
					c0-0.374,0.179-0.708,0.491-0.916l24.29-16.158L40.42,11.49c0.356,0.237,0.836,0.14,1.072-0.215
					c0.237-0.356,0.14-0.836-0.215-1.072L27.078,0.757c-0.456-0.303-1.046-0.303-1.501,0l-7.29,4.85V4.35h0.221
					c0.554,0,1.005-0.45,1.005-1.004V1.004C19.511,0.451,19.061,0,18.507,0h-8.164C9.789,0,9.338,0.45,9.338,1.004v2.341
					c0,0.554,0.451,1.004,1.004,1.004h0.221v6.393l-9.383,6.242C0.441,17.476,0,18.3,0,19.188c0,0.888,0.441,1.712,1.181,2.204
					c0.445,0.296,0.955,0.444,1.466,0.444c0.51,0,1.02-0.148,1.466-0.444l2.365-1.573v13.691c0,0.427,0.346,0.773,0.773,0.773
					c0.427,0,0.773-0.346,0.773-0.773V18.79L26.327,6.615L44.63,18.79v5.838c-0.067-0.017-0.134-0.032-0.2-0.047
					c-0.03-0.007-0.06-0.015-0.091-0.022c-0.075-0.017-0.151-0.034-0.227-0.049c-0.044-0.009-0.088-0.018-0.132-0.027
					c-0.07-0.014-0.14-0.028-0.211-0.041c-0.053-0.01-0.106-0.018-0.16-0.028c-0.064-0.01-0.128-0.022-0.192-0.032
					c-0.111-0.017-0.222-0.033-0.333-0.046c-0.05-0.007-0.101-0.012-0.152-0.018c-0.073-0.008-0.145-0.016-0.218-0.024
					c-0.052-0.005-0.105-0.01-0.157-0.014c-0.073-0.006-0.146-0.012-0.219-0.017c-0.05-0.003-0.101-0.007-0.151-0.01
					c-0.08-0.005-0.16-0.008-0.24-0.011c-0.043-0.002-0.087-0.004-0.131-0.005c-0.117-0.003-0.234-0.005-0.351-0.005
					c-0.006,0-0.013,0-0.019,0c-6.246,0-11.473,4.446-12.683,10.34c-0.173,0.842-0.264,1.714-0.264,2.606
					c0,0.109,0.001,0.218,0.004,0.326c0.03,1.214,0.229,2.387,0.572,3.496c0.001,0.003,0.001,0.005,0.002,0.007
					c0.015,0.049,0.031,0.097,0.047,0.145c0.116,0.361,0.247,0.718,0.395,1.068H25.71V24.218c0-0.898-0.731-1.628-1.628-1.628
					H12.743c-0.898,0-1.628,0.731-1.628,1.628v18.003h-3.09v-3.908c0-0.427-0.346-0.773-0.773-0.773
					c-0.427,0-0.773,0.346-0.773,0.773v3.908H3.295c-1.183,0-2.146,0.963-2.146,2.146s0.963,2.146,2.146,2.146h29.189
					c2.328,2.236,5.487,3.612,8.962,3.612c7.139,0,12.946-5.807,12.946-12.946C54.391,31.709,50.982,27.021,46.176,25.128
					L46.176,25.128z M16.739,6.635l-2.48,1.65l-2.148,1.429V4.35h4.629V6.635L16.739,6.635z M10.885,1.547h7.08v1.257h-7.08V1.547
					L10.885,1.547z M12.661,24.218c0-0.045,0.037-0.082,0.082-0.082h11.339c0.045,0,0.082,0.037,0.082,0.082v18.003H12.661V24.218
					L12.661,24.218z M3.295,44.966L3.295,44.966c-0.331,0-0.599-0.269-0.599-0.599c0-0.331,0.269-0.599,0.599-0.599h27.004
					c0.245,0.414,0.514,0.814,0.803,1.199H3.295L3.295,44.966z M41.445,48.579c-4.988,0-9.238-3.221-10.78-7.692
					c-0.014-0.039-0.027-0.079-0.04-0.118c-0.017-0.05-0.033-0.101-0.049-0.151c-0.025-0.081-0.05-0.161-0.073-0.242
					c-0.005-0.016-0.01-0.032-0.014-0.048c-0.193-0.675-0.324-1.367-0.391-2.068c-0.001-0.012-0.002-0.024-0.003-0.036
					c-0.009-0.097-0.017-0.193-0.023-0.29c-0.002-0.026-0.003-0.051-0.005-0.077c-0.005-0.086-0.009-0.173-0.012-0.259
					c-0.001-0.028-0.003-0.056-0.003-0.084c-0.003-0.111-0.005-0.222-0.005-0.333c0-0.786,0.08-1.553,0.232-2.294
					c1.065-5.19,5.668-9.105,11.168-9.105h0.006c0.138,0,0.276,0.004,0.413,0.009c0.032,0.001,0.064,0.002,0.096,0.004
					c0.133,0.006,0.266,0.014,0.398,0.025c0.033,0.003,0.065,0.006,0.097,0.009c0.113,0.01,0.225,0.021,0.338,0.035
					c0.031,0.004,0.062,0.007,0.093,0.011c0.123,0.015,0.245,0.034,0.367,0.053c0.048,0.008,0.096,0.016,0.145,0.024
					c0.115,0.02,0.23,0.041,0.344,0.065c0.054,0.011,0.107,0.023,0.16,0.035c0.074,0.016,0.147,0.033,0.221,0.051
					c0.088,0.021,0.176,0.044,0.263,0.067c0.069,0.018,0.138,0.037,0.207,0.057c0.074,0.021,0.147,0.043,0.219,0.065
					c0.035,0.011,0.069,0.022,0.104,0.033c4.593,1.472,7.928,5.783,7.928,10.858C52.845,43.465,47.731,48.579,41.445,48.579z"/>
			</g>
		</g>
		<g>
			<g>
				<path fill-rule="evenodd" clip-rule="evenodd" fill="#1A1A18" d="M21.812,31.205c-0.426,0-0.77,0.345-0.77,0.77v1.592
					c0,0.425,0.345,0.77,0.77,0.77c0.426,0,0.771-0.345,0.771-0.77v-1.592C22.582,31.55,22.237,31.205,21.812,31.205z"/>
			</g>
		</g>
	</g>
</g>
</svg>
