<?xml version="1.0" encoding="utf-8"?>
<!-- Generator: Adobe Illustrator 21.1.0, SVG Export Plug-In . SVG Version: 6.00 Build 0)  -->
<svg version="1.1" id="Слой_1" xmlns="http://www.w3.org/2000/svg" xmlns:xlink="http://www.w3.org/1999/xlink" x="0px" y="0px"
	 viewBox="0 0 20.951 20.951" enable-background="new 0 0 20.951 20.951" xml:space="preserve">
<path fill-rule="evenodd" clip-rule="evenodd" fill="#FFFFFF" d="M17.062,2.314c0.674,0,1.22,0.546,1.22,1.22
	c0,0.674-0.546,1.22-1.22,1.22c-0.673,0-1.219-0.546-1.219-1.22C15.843,2.86,16.389,2.314,17.062,2.314 M10.476,5.045
	c2.999,0,5.431,2.431,5.431,5.431c0,2.999-2.432,5.43-5.431,5.43c-3,0-5.431-2.431-5.431-5.43C5.045,7.476,7.476,5.045,10.476,5.045
	z M10.476,4.336c3.391,0,6.139,2.749,6.139,6.14c0,3.39-2.748,6.139-6.139,6.139s-6.139-2.749-6.139-6.139
	C4.337,7.085,7.085,4.336,10.476,4.336z M3.276,0.668c-1.433,0-2.608,1.175-2.608,2.608v14.4c0,1.432,1.175,2.607,2.608,2.607h14.4
	c1.432,0,2.608-1.175,2.608-2.607v-14.4c0-1.433-1.176-2.608-2.608-2.608H3.276z M3.276,0h14.4c1.801,0,3.275,1.474,3.275,3.276
	v14.4c0,1.801-1.474,3.275-3.275,3.275h-14.4C1.474,20.951,0,19.477,0,17.676v-14.4C0,1.474,1.474,0,3.276,0z"/>
</svg>
