<?xml version="1.0" encoding="utf-8"?>
<!-- Generator: Adobe Illustrator 21.1.0, SVG Export Plug-In . SVG Version: 6.00 Build 0)  -->
<svg version="1.1" id="Слой_1" xmlns="http://www.w3.org/2000/svg" xmlns:xlink="http://www.w3.org/1999/xlink" x="0px" y="0px"
	 viewBox="0 0 27.989 27.988" enable-background="new 0 0 27.989 27.988" xml:space="preserve">
<path fill-rule="evenodd" clip-rule="evenodd" fill="#1A1A18" d="M4.376,0h19.236c2.407,0,4.376,1.969,4.376,4.376v19.236
	c0,2.406-1.97,4.376-4.376,4.376H4.376C1.969,27.988,0,26.019,0,23.613V4.376C0,1.969,1.969,0,4.376,0L4.376,0z M4.376,0.892
	c-1.914,0-3.483,1.57-3.483,3.484v19.236c0,1.914,1.569,3.483,3.483,3.483h19.236c1.914,0,3.484-1.569,3.484-3.483V4.376
	c0-1.914-1.57-3.484-3.484-3.484H4.376L4.376,0.892z M13.994,5.793c-4.53,0-8.201,3.672-8.201,8.201
	c0,4.529,3.672,8.201,8.201,8.201c4.53,0,8.202-3.672,8.202-8.201C22.196,9.465,18.524,5.793,13.994,5.793L13.994,5.793z
	 M13.994,6.739c-4.007,0-7.255,3.248-7.255,7.255c0,4.007,3.248,7.255,7.255,7.255c4.007,0,7.255-3.248,7.255-7.255
	C21.249,9.987,18.001,6.739,13.994,6.739L13.994,6.739z M22.793,3.092c-0.9,0-1.63,0.73-1.63,1.63c0,0.9,0.73,1.629,1.63,1.629
	s1.63-0.73,1.63-1.629C24.423,3.821,23.693,3.092,22.793,3.092z"/>
</svg>
