<?xml version="1.0" encoding="utf-8"?>
<!-- Generator: Adobe Illustrator 21.1.0, SVG Export Plug-In . SVG Version: 6.00 Build 0)  -->
<svg version="1.1" id="Слой_1" xmlns="http://www.w3.org/2000/svg" xmlns:xlink="http://www.w3.org/1999/xlink" x="0px" y="0px"
	 viewBox="0 0 105.15 76.723" enable-background="new 0 0 105.15 76.723" xml:space="preserve">
<path fill-rule="evenodd" clip-rule="evenodd" fill="#4EA391" d="M40.505,50.336c9.514,0.968,26.233,0.48,31.335,0.392
	c8.403-0.144,13.052-2.824,14.852-8.624C72.3,41.949,57.719,42.339,40.505,50.336"/>
<path fill-rule="evenodd" clip-rule="evenodd" fill="#F7931D" d="M64.925,7.243c2.367-0.693,4.421-0.676,6.636,1.436
	c0.629,0.6,0.548,0.656,0.534,1.22l-0.065,3.406c-2.339-1.548-4.211-1.965-7.209-1.687L64.925,7.243 M58.799,10.056l4.868-2.29
	c-0.021,1.283-0.021,3.072-0.119,4.298l-4.862,1.748L58.799,10.056z M76.707,18.241l-3.253-3.677
	c-0.284-0.335-0.185-0.537-0.175-1.071c0.015-0.85,0.021-1.703,0.042-2.551l3.024,3.882c0.24,0.283,0.367,0.409,0.37,0.877
	C76.72,16.545,76.718,17.4,76.707,18.241z M54.228,12.041l3.313-1.471l-0.135,3.682l-3.248,1.272L54.228,12.041z M73.244,16.066
	l3.177,3.616c0.418,0.455,0.294,0.688,0.29,1.36l-0.027,4.441l-3.518-3.976L73.244,16.066z M64.802,12.987
	c2.194-0.306,4.703,0.018,6.791,1.475c0.29,0.203,0.436,0.198,0.463,0.533l-0.084,5.403c-2.533-1.497-4.815-2.029-7.293-1.623
	L64.802,12.987z M63.543,13.498l-0.118,5.552l-4.947,1.512l0.161-5.256L63.543,13.498z M57.38,15.779l-0.186,5.139l-0.374,0.191
	c-0.816,0.233-0.645,0.339-1.214-0.044c-0.373-0.251-1.327-0.844-1.555-1.064l0.056-3.045L57.38,15.779z M58.442,21.943l4.951-1.587
	l-0.134,5.773l-4.85-3.182L58.442,21.943z M73.165,23.172l3.316,3.833c0.347,0.374,0.23,0.629,0.227,1.44l-0.026,4.836
	c-0.317-0.379-3.314-3.869-3.625-4.096L73.165,23.172z M64.659,20.073c1.652-0.37,5.719,0.124,7.26,1.837l-0.108,6.131
	c-3.025-1.901-5.052-1.964-7.284-1.776L64.659,20.073z M73.058,30.856l3.11,3.62c0.679,0.88,0.544,0.255,0.537,2.65
	c-0.003,1.011,0.019,2.049-0.006,3.058c-1.18-0.133-0.75-0.146-1.508-0.917l-2.11-2.294L73.058,30.856z M72.921,39.936l0.004-1.468
	l1.305,1.543L72.921,39.936z M79.344,6.274c-9.088-13.053-27.707-2.96-42.05,5.227c-13.542,7.729-15.531,24.585-7.756,33.637
	c0.446-0.106,0.888-0.209,1.327-0.311l11.101-5.597l5.005,2.181c0.277,0.127,0.474,0.164,0.66,0.157l0.35-0.052
	c0.114-0.025,0.238-0.055,0.386-0.082c0.754-0.113,2.439-0.397,5.639-0.873l-11.469-5.764l0.108-4.425l17.366,9.352
	c0.798,0.441,1.082,0.272,1.891,0.23c1.533-0.037,5.465-0.218,9.74-0.109l0.059-2.575c-2.325-1.861-3.392-1.967-5.713-2.236
	l0.003-1.269c2.168,0.047,4.131,0.904,5.702,1.942l0.118-6.146c-1.464-1.427-4.795-2.369-6.474-2.074l0.644,0.456l0.005,3.939
	L42.937,17.327l0.103-4.581l7.606,5.021l0.179-8.243l11.233-5.139c4.126-1.862,9.125-1.511,12.58,2.992l4.841,6.402
	c0.611,0.859,0.665,0.39,0.659,1.699l-0.009,24.985c0.165,0.053,3.787,0.511,6.753,0.981c0.404-1.533,0.626-3.268,0.681-5.216
	C87.872,25.296,83.37,12.056,79.344,6.274z M42.756,25.728l23.221,13.437l-0.025-3.916L42.829,21.505L42.756,25.728z"/>
<path fill-rule="evenodd" clip-rule="evenodd" fill="#231F20" d="M0.696,69.931c1.215-3.41,8.889-21.717,13.012-17.562
	c1.291,1.302,0.134,8.003,0.029,10.414c2.849-4.661,7.622-12.072,8.437-12.874c1.187-1.17,3.818-0.849,4.195,0.824
	c1.145,5.094-3.072,24.882-6.857,25.876c-3.145,0.825-1.591-3.057-1.032-4.488c1.958-5.017,4.316-10.163,4.923-15.976
	c0.359-3.438-1.196-0.867-1.905,0.261c-2.197,3.502-3.734,5.8-5.814,9.299c-3.344,5.625-5.284,4.934-5.311-1.899
	c-0.006-1.392,1.175-6.907,1.095-7.891C9.531,58.099,5.563,67.48,4.929,69.351c-0.626,1.85-0.737,2.517-1.533,4.53
	C2.598,75.491-1.643,76.493,0.696,69.931"/>
<path fill="#231F20" d="M103.779,70.907v-7.853l-2.03,2.048v5.805h-1.371V58.549h1.371v4.897l2.03-2.119v-2.778h1.371v12.358
	H103.779 M101.464,56.341h2.6v0.908h-2.6V56.341z M95.579,58.549h1.371v12.358h-1.371V58.549z M92.57,64.372
	c0-0.154-0.039-0.282-0.116-0.383c-0.077-0.101-0.217-0.151-0.418-0.151h-1.3v5.698h1.3c0.154,0,0.281-0.039,0.382-0.116
	c0.101-0.077,0.152-0.216,0.152-0.418V64.372z M92.036,62.467c0.344,0,0.637,0.05,0.881,0.151c0.243,0.101,0.439,0.237,0.588,0.41
	c0.148,0.172,0.258,0.373,0.329,0.605c0.071,0.231,0.107,0.478,0.107,0.739v4.63c0,0.344-0.051,0.638-0.152,0.881
	c-0.1,0.244-0.237,0.44-0.409,0.588s-0.374,0.258-0.605,0.329c-0.232,0.072-0.478,0.107-0.739,0.107h-2.672V58.549h1.372v3.918
	H92.036z M84.566,62.484v-3.935h1.371v12.358h-1.371v-7.052h-2.12v7.052h-1.371V58.549h1.371v3.935H84.566z M68.957,70.907
	l1.656-7.728l-1.549-4.63h1.443l1.353,4.042h1.051v-4.042h1.371v4.042h1.033l1.353-4.042h1.46l-1.549,4.63l1.656,7.728h-1.407
	l-1.531-7.159h-1.015v7.159h-1.371v-7.159h-1.016l-1.531,7.159H68.957z M62.235,58.549h4.114v1.371h-2.743v2.547h2.066v1.388h-2.066
	v5.681h2.743v1.371h-4.114V58.549z M57.24,69.536V59.92h-1.46l-0.374,8.85c-0.024,0.309-0.118,0.564-0.285,0.766H57.24z
	 M59.555,69.536v3.01h-0.944l-0.267-1.639h-4.255l-0.125,1.639H52.86v-3.01h0.801c0.25-0.166,0.38-0.439,0.392-0.819l0.409-10.168
	h4.149v10.987H59.555z M48.559,69.643c0.19,0,0.327-0.054,0.41-0.16c0.083-0.107,0.125-0.232,0.125-0.374v-8.761
	c0-0.143-0.042-0.268-0.125-0.374c-0.083-0.107-0.22-0.161-0.41-0.161h-1.05c-0.202,0-0.342,0.054-0.419,0.161
	c-0.077,0.106-0.115,0.231-0.115,0.374v8.761c0,0.142,0.038,0.267,0.115,0.374c0.077,0.106,0.217,0.16,0.419,0.16H48.559z
	 M48.559,58.442c0.345,0,0.639,0.051,0.882,0.151c0.243,0.101,0.439,0.238,0.587,0.41c0.149,0.172,0.259,0.374,0.33,0.606
	c0.071,0.231,0.107,0.477,0.107,0.739v8.761c0,0.261-0.036,0.507-0.107,0.739c-0.071,0.231-0.181,0.433-0.33,0.605
	c-0.148,0.172-0.344,0.309-0.587,0.41c-0.243,0.1-0.537,0.151-0.882,0.151h-1.05c-0.344,0-0.638-0.051-0.882-0.151
	c-0.243-0.101-0.439-0.238-0.587-0.41c-0.149-0.172-0.258-0.374-0.33-0.605c-0.071-0.232-0.107-0.478-0.107-0.739v-8.761
	c0-0.262,0.036-0.508,0.107-0.739c0.072-0.232,0.181-0.434,0.33-0.606c0.148-0.172,0.344-0.309,0.587-0.41
	c0.244-0.1,0.538-0.151,0.882-0.151H48.559z M42.354,58.549v12.358h-1.371V59.92h-1.567l-0.41,9.277
	c-0.024,0.571-0.145,0.998-0.365,1.283s-0.614,0.427-1.184,0.427h-0.748v-1.371h0.569c0.143,0,0.235-0.021,0.277-0.063
	c0.041-0.041,0.068-0.133,0.08-0.276l0.463-10.648H42.354z M32.355,69.643c0.19,0,0.327-0.054,0.41-0.16
	c0.083-0.107,0.124-0.232,0.124-0.374v-8.761c0-0.143-0.041-0.268-0.124-0.374c-0.083-0.107-0.22-0.161-0.41-0.161h-1.051
	c-0.202,0-0.341,0.054-0.418,0.161c-0.077,0.106-0.116,0.231-0.116,0.374v8.761c0,0.142,0.039,0.267,0.116,0.374
	c0.077,0.106,0.216,0.16,0.418,0.16H32.355z M32.355,58.442c0.344,0,0.638,0.051,0.882,0.151c0.243,0.101,0.439,0.238,0.587,0.41
	s0.258,0.374,0.33,0.606c0.071,0.231,0.106,0.477,0.106,0.739v8.761c0,0.261-0.035,0.507-0.106,0.739
	c-0.072,0.231-0.182,0.433-0.33,0.605s-0.344,0.309-0.587,0.41c-0.244,0.1-0.538,0.151-0.882,0.151h-1.051
	c-0.344,0-0.638-0.051-0.881-0.151c-0.244-0.101-0.439-0.238-0.588-0.41c-0.148-0.172-0.258-0.374-0.329-0.605
	c-0.071-0.232-0.107-0.478-0.107-0.739v-8.761c0-0.262,0.036-0.508,0.107-0.739c0.071-0.232,0.181-0.434,0.329-0.606
	c0.149-0.172,0.344-0.309,0.588-0.41c0.243-0.1,0.537-0.151,0.881-0.151H32.355z"/>
<path fill-rule="evenodd" clip-rule="evenodd" fill="#231F20" d="M42.962,17.356l0.094-4.602l-9.826,6.961v4.142L42.962,17.356
	 M42.758,25.756l0.089-4.257l-9.617,5.95v3.904L42.758,25.756z M42.538,34.783l0.081-4.437l-9.41,5.34l0.021,3.835L42.538,34.783z"
	/>
</svg>
