<?xml version="1.0" encoding="utf-8"?>
<!-- Generator: Adobe Illustrator 21.1.0, SVG Export Plug-In . SVG Version: 6.00 Build 0)  -->
<svg version="1.1" id="Слой_1" xmlns="http://www.w3.org/2000/svg" xmlns:xlink="http://www.w3.org/1999/xlink" x="0px" y="0px"
	 viewBox="0 0 85.725 62.549" enable-background="new 0 0 85.725 62.549" xml:space="preserve">
<path fill-rule="evenodd" clip-rule="evenodd" fill="#FFFFFF" d="M33.022,41.037c7.757,0.789,21.387,0.391,25.546,0.319
	c6.851-0.117,10.641-2.302,12.108-7.03C58.943,34.199,47.056,34.517,33.022,41.037"/>
<path fill-rule="evenodd" clip-rule="evenodd" fill="#FFFFFF" d="M52.93,5.905c1.93-0.565,3.605-0.551,5.41,1.171
	c0.513,0.489,0.447,0.535,0.436,0.995l-0.053,2.776c-1.907-1.262-3.433-1.602-5.878-1.375L52.93,5.905 M47.936,8.198l3.969-1.867
	c-0.017,1.046-0.017,2.505-0.097,3.504l-3.964,1.426L47.936,8.198z M62.536,14.872l-2.652-2.998
	c-0.232-0.273-0.151-0.438-0.143-0.874c0.013-0.692,0.017-1.388,0.034-2.08l2.466,3.166c0.195,0.23,0.299,0.333,0.301,0.714
	C62.546,13.488,62.545,14.186,62.536,14.872z M44.21,9.816l2.701-1.198L46.8,11.619l-2.648,1.037L44.21,9.816z M59.713,13.098
	l2.59,2.948c0.341,0.371,0.239,0.561,0.236,1.109l-0.022,3.62l-2.868-3.241L59.713,13.098z M52.83,10.588
	c1.789-0.249,3.834,0.015,5.536,1.202c0.237,0.166,0.356,0.162,0.378,0.435l-0.068,4.405c-2.066-1.221-3.926-1.654-5.946-1.323
	L52.83,10.588z M51.804,11.004l-0.096,4.527l-4.034,1.233l0.132-4.286L51.804,11.004z M46.779,12.864l-0.151,4.19l-0.305,0.155
	c-0.665,0.191-0.526,0.277-0.99-0.036c-0.304-0.204-1.082-0.688-1.268-0.867l0.046-2.482L46.779,12.864z M47.645,17.889l4.036-1.294
	l-0.109,4.707l-3.954-2.594L47.645,17.889z M59.648,18.892l2.703,3.124c0.283,0.305,0.188,0.513,0.185,1.174l-0.021,3.943
	c-0.258-0.309-2.701-3.155-2.955-3.34L59.648,18.892z M52.714,16.365c1.347-0.302,4.662,0.1,5.919,1.498l-0.088,4.998
	c-2.467-1.55-4.119-1.602-5.939-1.448L52.714,16.365z M59.561,25.155l2.536,2.952c0.553,0.717,0.443,0.208,0.437,2.16
	c-0.002,0.825,0.016,1.671-0.005,2.493c-0.962-0.108-0.612-0.119-1.23-0.748l-1.72-1.869L59.561,25.155z M59.449,32.559l0.003-1.197
	l1.064,1.257L59.449,32.559z M64.686,5.115c-7.41-10.642-22.588-2.413-34.282,4.262c-11.039,6.301-12.661,20.042-6.323,27.422
	c0.363-0.086,0.724-0.17,1.082-0.254l9.05-4.563l4.08,1.778c0.227,0.104,0.387,0.134,0.539,0.129l0.285-0.042
	c0.093-0.021,0.194-0.046,0.315-0.067c0.614-0.092,1.988-0.324,4.596-0.712l-9.349-4.699l0.087-3.608l14.158,7.624
	c0.651,0.359,0.882,0.222,1.542,0.188c1.249-0.03,4.455-0.178,7.941-0.089l0.048-2.1c-1.896-1.517-2.766-1.603-4.658-1.822
	l0.003-1.035c1.767,0.039,3.367,0.737,4.648,1.584l0.096-5.011c-1.193-1.164-3.909-1.931-5.277-1.691l0.524,0.372l0.005,3.211
	L35.005,14.126l0.084-3.734l6.2,4.093l0.146-6.72l9.158-4.19c3.364-1.518,7.439-1.232,10.256,2.44l3.946,5.219
	c0.498,0.7,0.543,0.318,0.538,1.384l-0.008,20.37c0.135,0.043,3.088,0.417,5.506,0.8c0.329-1.25,0.51-2.665,0.555-4.253
	C71.638,20.623,67.968,9.829,64.686,5.115z M34.857,20.975L53.788,31.93l-0.021-3.193L34.916,17.532L34.857,20.975z"/>
<path fill-rule="evenodd" clip-rule="evenodd" fill="#FFFFFF" d="M0.567,57.012c0.991-2.78,7.247-17.705,10.608-14.317
	c1.052,1.061,0.109,6.524,0.024,8.489c2.322-3.799,6.214-9.84,6.878-10.495c0.967-0.954,3.113-0.692,3.42,0.672
	c0.934,4.153-2.504,20.285-5.591,21.095c-2.563,0.673-1.296-2.492-0.841-3.659c1.597-4.09,3.519-8.285,4.014-13.024
	c0.293-2.802-0.975-0.707-1.553,0.213c-1.791,2.855-3.044,4.728-4.74,7.581c-2.726,4.586-4.308,4.022-4.33-1.548
	c-0.004-1.135,0.958-5.632,0.893-6.433c-1.579,1.78-4.814,9.428-5.331,10.953c-0.511,1.508-0.601,2.052-1.25,3.693
	C2.118,61.545-1.34,62.362,0.567,57.012"/>
<path fill="#FFFFFF" d="M84.607,57.807v-6.402l-1.655,1.67v4.732h-1.118V47.732h1.118v3.992l1.655-1.727v-2.265h1.118v10.075H84.607
	 M82.72,45.932h2.12v0.74h-2.12V45.932z M77.922,47.732h1.118v10.075h-1.118V47.732z M75.468,52.479c0-0.126-0.031-0.23-0.094-0.312
	c-0.063-0.082-0.177-0.123-0.341-0.123h-1.06v4.645h1.06c0.126,0,0.23-0.031,0.312-0.094s0.123-0.177,0.123-0.341V52.479z
	 M75.033,50.926c0.28,0,0.52,0.041,0.718,0.123c0.199,0.083,0.358,0.194,0.479,0.334s0.211,0.305,0.269,0.494
	c0.058,0.188,0.087,0.389,0.087,0.602v3.775c0,0.281-0.041,0.52-0.124,0.718c-0.081,0.199-0.193,0.358-0.333,0.48
	c-0.14,0.12-0.305,0.21-0.494,0.268c-0.188,0.058-0.389,0.087-0.602,0.087h-2.178V47.732h1.118v3.194H75.033z M68.943,50.94v-3.208
	h1.117v10.075h-1.117v-5.749h-1.728v5.749h-1.118V47.732h1.118v3.208H68.943z M56.218,57.807l1.35-6.3l-1.263-3.775h1.176
	l1.104,3.295h0.856v-3.295h1.118v3.295h0.842l1.103-3.295h1.191l-1.263,3.775l1.35,6.3h-1.147l-1.249-5.836h-0.827v5.836h-1.118
	v-5.836h-0.827l-1.249,5.836H56.218z M50.738,47.732h3.353v1.118h-2.235v2.076h1.684v1.132h-1.684v4.631h2.235v1.118h-3.353V47.732z
	 M46.666,56.689V48.85h-1.19l-0.305,7.215c-0.02,0.252-0.097,0.46-0.233,0.624H46.666z M48.553,56.689v2.454h-0.769l-0.218-1.336
	h-3.47l-0.101,1.336h-0.9v-2.454h0.653c0.203-0.135,0.31-0.358,0.319-0.668l0.334-8.289h3.383v8.957H48.553z M39.589,56.776
	c0.155,0,0.266-0.043,0.334-0.13c0.067-0.087,0.101-0.189,0.101-0.305v-7.143c0-0.116-0.034-0.218-0.101-0.305
	c-0.068-0.087-0.179-0.13-0.334-0.13h-0.857c-0.164,0-0.278,0.043-0.341,0.13c-0.063,0.087-0.094,0.189-0.094,0.305v7.143
	c0,0.116,0.031,0.218,0.094,0.305c0.063,0.087,0.177,0.13,0.341,0.13H39.589z M39.589,47.645c0.28,0,0.52,0.041,0.718,0.123
	c0.199,0.083,0.358,0.194,0.48,0.334c0.12,0.141,0.21,0.305,0.268,0.494c0.058,0.189,0.087,0.389,0.087,0.602v7.143
	c0,0.213-0.029,0.413-0.087,0.602c-0.058,0.189-0.148,0.354-0.268,0.494c-0.122,0.14-0.281,0.251-0.48,0.334
	c-0.198,0.082-0.438,0.123-0.718,0.123h-0.857c-0.28,0-0.52-0.041-0.718-0.123c-0.199-0.083-0.358-0.194-0.479-0.334
	c-0.121-0.14-0.211-0.305-0.269-0.494c-0.058-0.189-0.087-0.389-0.087-0.602v-7.143c0-0.213,0.029-0.413,0.087-0.602
	c0.058-0.189,0.148-0.353,0.269-0.494c0.121-0.14,0.28-0.251,0.479-0.334c0.198-0.082,0.438-0.123,0.718-0.123H39.589z
	 M34.53,47.732v10.075h-1.118V48.85h-1.278L31.8,56.413c-0.019,0.465-0.118,0.813-0.297,1.046c-0.179,0.232-0.501,0.348-0.966,0.348
	h-0.609v-1.118h0.464c0.116,0,0.191-0.017,0.225-0.05c0.034-0.034,0.056-0.109,0.065-0.226l0.378-8.681H34.53z M26.378,56.776
	c0.155,0,0.266-0.043,0.334-0.13c0.068-0.087,0.102-0.189,0.102-0.305v-7.143c0-0.116-0.034-0.218-0.102-0.305
	c-0.068-0.087-0.179-0.13-0.334-0.13h-0.856c-0.165,0-0.279,0.043-0.342,0.13c-0.063,0.087-0.094,0.189-0.094,0.305v7.143
	c0,0.116,0.031,0.218,0.094,0.305c0.063,0.087,0.177,0.13,0.342,0.13H26.378z M26.378,47.645c0.281,0,0.52,0.041,0.719,0.123
	c0.198,0.083,0.358,0.194,0.479,0.334c0.121,0.141,0.21,0.305,0.268,0.494c0.058,0.189,0.087,0.389,0.087,0.602v7.143
	c0,0.213-0.029,0.413-0.087,0.602c-0.058,0.189-0.147,0.354-0.268,0.494c-0.121,0.14-0.281,0.251-0.479,0.334
	c-0.199,0.082-0.438,0.123-0.719,0.123h-0.856c-0.281,0-0.521-0.041-0.719-0.123c-0.198-0.083-0.358-0.194-0.479-0.334
	c-0.121-0.14-0.211-0.305-0.269-0.494c-0.058-0.189-0.087-0.389-0.087-0.602v-7.143c0-0.213,0.029-0.413,0.087-0.602
	c0.058-0.189,0.148-0.353,0.269-0.494c0.121-0.14,0.281-0.251,0.479-0.334c0.198-0.082,0.438-0.123,0.719-0.123H26.378z"/>
</svg>
