<?xml version="1.0" encoding="utf-8"?>
<!-- Generator: Adobe Illustrator 21.1.0, SVG Export Plug-In . SVG Version: 6.00 Build 0)  -->
<svg version="1.1" id="Слой_1" xmlns="http://www.w3.org/2000/svg" xmlns:xlink="http://www.w3.org/1999/xlink" x="0px" y="0px"
	 viewBox="0 0 9.318 9.352" enable-background="new 0 0 9.318 9.352" xml:space="preserve">
<path fill="#FFFFFF" d="M4.66,0C2.087,0,0,2.093,0,4.676c0,2.581,2.087,4.676,4.66,4.676c2.572,0,4.658-2.095,4.658-4.676
	C9.318,2.093,7.232,0,4.66,0"/>
<path fill="#808285" d="M5.2,4.584L4.746,4.867C4.719,4.885,4.689,4.892,4.66,4.892c-0.034,0-0.066-0.009-0.094-0.028L4.18,4.597
	l-1.949,1.68h4.924L5.216,4.584H5.2 M5.107,4.259l1.877-1.172C6.956,3.083,6.927,3.079,6.897,3.079H2.544l1.717,1.18H5.107z
	 M2.139,3.196C2.07,3.267,2.025,3.364,2.025,3.472v2.515c0,0.011,0.003,0.022,0.003,0.032l1.873-1.611L2.139,3.196z M7.253,3.304
	L5.498,4.398l1.795,1.565V3.472C7.293,3.411,7.278,3.356,7.253,3.304z M2.544,3.078l2.12,1.457l2.313-1.46L2.544,3.078z"/>
</svg>
