<?xml version="1.0" encoding="utf-8"?>
<!-- Generator: Adobe Illustrator 21.1.0, SVG Export Plug-In . SVG Version: 6.00 Build 0)  -->
<svg version="1.1" id="Слой_1" xmlns="http://www.w3.org/2000/svg" xmlns:xlink="http://www.w3.org/1999/xlink" x="0px" y="0px"
	 viewBox="0 0 20.951 20.951" enable-background="new 0 0 20.951 20.951" xml:space="preserve">
<path fill-rule="evenodd" clip-rule="evenodd" fill="#FFFFFF" d="M3.276,0.668c-1.434,0-2.608,1.175-2.608,2.608v14.4
	c0,1.433,1.174,2.607,2.608,2.607h14.399c1.433,0,2.608-1.174,2.608-2.607v-14.4c0-1.433-1.175-2.608-2.608-2.608H3.276 M3.276,0
	h14.399c1.802,0,3.276,1.475,3.276,3.276v14.4c0,1.801-1.474,3.275-3.276,3.275H3.276C1.474,20.951,0,19.477,0,17.676v-14.4
	C0,1.475,1.474,0,3.276,0z"/>
<path fill="#FFFFFF" d="M6.583,9.942V4.51h4.662c2.213,0,3.458,1.027,3.458,2.548c0,1.877-1.482,2.884-3.556,2.884H6.583
	 M6.583,16.442V10.89h4.682c2.727,0,4.208,0.988,4.208,2.687c0,1.778-1.501,2.865-3.872,2.865H6.583z M5.556,17.39h6.006
	c2.983,0,4.958-1.462,4.958-3.773c0-1.956-1.462-2.904-3.121-3.339c1.126-0.454,2.351-1.402,2.351-3.279
	c0-2.094-1.778-3.438-4.485-3.438H5.556V17.39z"/>
</svg>
